<svg width="34" height="34" viewBox="0 0 34 34" fill="none" xmlns="http://www.w3.org/2000/svg">
<rect width="34" height="34" rx="17" fill="white"/>
<path d="M10.774 17.218C10.774 15.994 11.05 14.896 11.602 13.924C12.154 12.94 12.904 12.172 13.852 11.62C14.812 11.068 15.874 10.792 17.038 10.792C18.406 10.792 19.6 11.122 20.62 11.782C21.64 12.442 22.384 13.378 22.852 14.59H20.89C20.542 13.834 20.038 13.252 19.378 12.844C18.73 12.436 17.95 12.232 17.038 12.232C16.162 12.232 15.376 12.436 14.68 12.844C13.984 13.252 13.438 13.834 13.042 14.59C12.646 15.334 12.448 16.21 12.448 17.218C12.448 18.214 12.646 19.09 13.042 19.846C13.438 20.59 13.984 21.166 14.68 21.574C15.376 21.982 16.162 22.186 17.038 22.186C17.95 22.186 18.73 21.988 19.378 21.592C20.038 21.184 20.542 20.602 20.89 19.846H22.852C22.384 21.046 21.64 21.976 20.62 22.636C19.6 23.284 18.406 23.608 17.038 23.608C15.874 23.608 14.812 23.338 13.852 22.798C12.904 22.246 12.154 21.484 11.602 20.512C11.05 19.54 10.774 18.442 10.774 17.218Z" fill="#007A5E"/>
</svg>
